<?xml version="1.0" encoding="utf-8"?>
<!-- Generator: Adobe Illustrator 16.0.0, SVG Export Plug-In . SVG Version: 6.00 Build 0)  -->
<!DOCTYPE svg PUBLIC "-//W3C//DTD SVG 1.1//EN" "http://www.w3.org/Graphics/SVG/1.1/DTD/svg11.dtd">
<svg version="1.1" id="Calque_1" xmlns="http://www.w3.org/2000/svg" xmlns:xlink="http://www.w3.org/1999/xlink" x="0px" y="0px"
	 width="415.824px" height="412.831px" viewBox="1.176 1.169 415.824 412.831" enable-background="new 1.176 1.169 415.824 412.831"
	 xml:space="preserve">
<g>
	<g>
		<path fill="#006A67" d="M209.086,1.169c-114.825,0-207.91,92.416-207.91,206.416C1.176,321.584,94.261,414,209.086,414
			C323.915,414,417,321.584,417,207.585C417,93.585,323.915,1.169,209.086,1.169z M215.076,319.891
			c0.52,4.219,0.662,8.428,0.578,12.635c0.117,0.686,0.225,1.367,0.309,2.041c0.188,1.438,0.303,2.851,0.338,4.24
			c0.945,4.666,1.068,9.603,1.043,13.914c-0.049,8.543-0.643,17.021-0.51,25.563c0.063,3.916-0.375,11.901-3.377,15.638
			c4.541,0.73,5.219,6.732,2.119,9.154c-0.473,0.658-1.139,1.175-1.949,1.514c-0.666,0.344-1.457,0.549-2.383,0.549h-0.006
			c-0.207,0.022-0.418,0.045-0.641,0.045c-0.068,0-0.135-0.01-0.203-0.012c-0.236,0.032-0.482,0.053-0.74,0.053
			c-0.07,0-0.135-0.008-0.203-0.01c-0.049,0.001-0.092,0.01-0.141,0.01c-0.158,0-0.311-0.011-0.461-0.021
			c-0.104,0.005-0.203,0.021-0.312,0.021c-0.141,0-0.273-0.011-0.409-0.02c-0.094,0.005-0.181,0.02-0.277,0.02
			c-0.247,0-0.481-0.018-0.708-0.045c-1.618-0.018-2.837-0.646-3.656-1.588c-0.115-0.07-0.236-0.137-0.343-0.216
			c-4.075-1.296-4.406-7.326-0.972-9.371c-0.051-0.907-0.076-1.821-0.068-2.741c-2.714-4.767-2-12.193-1.94-17
			c0.023-1.804,1.118-3.326,2.581-4.252c0.078-6.791,0.853-13.602,1.571-20.412c-4.233-6.4-5.059-14.076-3.453-21.541
			c0.395-1.834,1.629-2.947,3.115-3.41c-0.213-1.652-0.357-3.295-0.409-4.941c-4.11-1.389-4.284-7.643-0.557-9.488
			c0.794-0.648,1.846-1.058,3.164-1.058c0.388,0,0.747,0.043,1.089,0.11c0.357-0.072,0.736-0.11,1.143-0.11
			c0.323,0,0.623,0.034,0.906,0.088c0.311-0.056,0.637-0.088,0.984-0.088c0.516,0,0.979,0.079,1.412,0.194
			c0.156-0.013,0.313-0.022,0.479-0.022c0.275,0,0.537,0.024,0.791,0.058c0.238-0.033,0.488-0.058,0.754-0.058
			c1.682,0,2.936,0.66,3.766,1.646C220.186,313.553,219.385,319.141,215.076,319.891z M211.365,299.693
			c-22.613,0-42.384-15.785-43.615-39.271c-0.043-0.832-0.05-1.664-0.039-2.495c-0.092-0.826-0.167-1.659-0.211-2.505
			c-1.137-21.696,16.631-43.615,39.271-43.615c22.613,0,42.384,15.785,43.615,39.271c0.045,0.832,0.051,1.664,0.039,2.496
			c0.092,0.825,0.168,1.658,0.211,2.504C251.774,277.774,234.006,299.693,211.365,299.693z M249.943,164.868
			c-2.162,19.446-18.629,37.326-39.078,37.326c-22.613,0-42.384-15.786-43.615-39.271c-0.208-3.968,0.223-7.941,1.193-11.789
			c2.162-19.446,18.63-37.326,39.078-37.326c22.613,0,42.384,15.786,43.616,39.271C251.346,157.046,250.914,161.02,249.943,164.868z
			 M248.283,75.761c-5.561,16.409-21.246,28.489-39.339,28.489c-22.623,0-41.5-18.877-41.5-41.5c0-1.731,0.124-3.437,0.338-5.117
			c-0.048-0.79-0.088-1.582-0.088-2.383c0-19.005,13.326-35.357,31-40.103c0.405-2.037,1.569-3.882,3.466-4.926
			c0.566-0.438,1.264-0.745,2.068-0.906c0.361-0.098,0.754-0.151,1.167-0.177c0.439-0.106,0.91-0.17,1.423-0.17
			c0.04,0,0.078,0.003,0.117,0.005c0.283-0.04,0.574-0.068,0.883-0.068c0.186,0,0.364,0.012,0.541,0.026
			c0.142-0.01,0.28-0.026,0.428-0.026c0.236,0,0.462,0.014,0.683,0.038c0.039-0.001,0.074-0.006,0.113-0.006
			c0.35,0,0.674,0.034,0.988,0.084c0.025-0.002,0.049-0.006,0.074-0.006c0.521,0,1,0.065,1.443,0.175
			c0.012,0.002,0.023,0.003,0.035,0.005c0.975,0.145,1.787,0.514,2.438,1.038c1.666,0.993,2.727,2.631,3.178,4.446
			c16.334,3.532,29.346,16.913,32.307,33.436c1.064,3.629,1.647,7.447,1.647,11.383C251.694,65.246,250.471,70.747,248.283,75.761z"
			/>
		<path fill="#FFFFFF" stroke="#FFFFFF" stroke-width="5.1532" stroke-miterlimit="10" d="M218.27,311.921
			c1.547,2.542,0.813,6.479-2.199,7.69v15.965c0.115,1.09,0.203,2.167,0.229,3.229c0.947,4.666,1.068,9.604,1.045,13.916
			c-0.051,8.541-0.645,17.021-0.512,25.563c0.035,2.234-0.092,5.795-0.762,9.137v7.824c1.594,1.637,1.865,4.374,0.809,6.387
			c29.541-4.686,55.408-35.656,71.74-81.229C265.511,315.234,241.943,312.398,218.27,311.921z"/>
		<path fill="#FFFFFF" stroke="#FFFFFF" stroke-width="5.1532" stroke-miterlimit="10" d="M263.804,394.455
			c1.768-0.512,3.523-1.023,5.271-1.59c1.474-0.473,2.927-0.983,4.38-1.491c1.717-0.593,3.43-1.204,5.135-1.851
			c1.453-0.549,2.89-1.137,4.332-1.723c1.664-0.695,3.325-1.394,4.967-2.093c1.437-0.628,2.86-1.287,4.287-1.951
			c1.611-0.761,3.217-1.532,4.811-2.335c1.396-0.714,2.792-1.438,4.188-2.183c1.565-0.841,3.122-1.693,4.666-2.571
			c1.396-0.788,2.744-1.583,4.105-2.398c1.513-0.931,3.021-1.86,4.518-2.791c1.34-0.853,2.677-1.717,3.994-2.605
			c1.475-0.991,2.926-2.023,4.37-3.055c1.305-0.93,2.594-1.856,3.861-2.791c1.397-1.073,2.829-2.188,4.231-3.305
			c1.243-0.99,2.484-1.976,3.709-2.992c1.395-1.156,2.729-2.354,4.085-3.553c1.187-1.057,2.38-2.097,3.541-3.176
			c1.332-1.244,2.632-2.529,3.929-3.809c1.126-1.108,2.266-2.202,3.367-3.338c0.2-0.215,0.396-0.439,0.608-0.656
			c-15.229-7.857-31.271-14.022-47.847-18.389c-8.619,27.448-23.956,52.324-44.625,72.363c0.564-0.145,1.132-0.264,1.697-0.412
			C260.878,395.348,262.345,394.889,263.804,394.455z"/>
		<path fill="#FFFFFF" stroke="#FFFFFF" stroke-width="5.1532" stroke-miterlimit="10" d="M404.44,214.059H320.72
			c-0.318,32.641-5.062,65.092-14.101,96.467c18.433,4.916,36.219,11.982,52.996,21.057
			C387.156,298.434,402.92,257.104,404.44,214.059z"/>
		<path fill="#FFFFFF" stroke="#FFFFFF" stroke-width="5.1532" stroke-miterlimit="10" d="M251.138,153.078
			c0.208,3.963-0.224,7.933-1.192,11.776c-1.717,15.501-12.527,30.003-27.199,35.257h84.006
			c-0.352-31.491-4.979-62.786-13.745-93.037c-23.285,5.303-47.026,8.32-70.888,9.026
			C238.064,121.276,250.182,134.856,251.138,153.078z"/>
		<path fill="#FFFFFF" stroke="#FFFFFF" stroke-width="5.1532" stroke-miterlimit="10" d="M221.746,102.162
			c22.502-0.677,44.896-3.482,66.874-8.399c-16.337-45.585-42.218-76.565-71.771-81.231c0.4,0.662,0.701,1.386,0.889,2.143
			c16.316,3.526,29.313,16.882,32.297,33.375c1.076,3.648,1.659,7.491,1.659,11.45c0,5.753-1.224,11.262-3.417,16.281
			C244.082,88.143,234.139,98.037,221.746,102.162z"/>
		<path fill="#FFFFFF" stroke="#FFFFFF" stroke-width="5.1532" stroke-miterlimit="10" d="M221.246,214.059
			c16.006,5.145,28.184,18.75,29.141,37.02c0.045,0.831,0.049,1.661,0.039,2.491c0.092,0.827,0.166,1.661,0.211,2.509
			c0.954,18.188-11.383,36.525-28.734,41.982c23.934,0.696,47.749,3.717,71.104,9.033c8.767-30.248,13.395-61.548,13.745-93.035
			H221.246z"/>
		<path fill="#FFFFFF" stroke="#FFFFFF" stroke-width="5.1532" stroke-miterlimit="10" d="M359.616,82.584
			c-16.775,9.075-34.563,16.144-52.996,21.059c9.038,31.375,13.78,63.825,14.101,96.469h83.721
			C402.917,157.066,387.151,115.737,359.616,82.584z"/>
		<path fill="#FFFFFF" stroke="#FFFFFF" stroke-width="5.1532" stroke-miterlimit="10" d="M350.18,72.008
			c-0.206-0.208-0.398-0.433-0.602-0.647c-1.104-1.138-2.251-2.233-3.375-3.34c-1.296-1.277-2.588-2.567-3.924-3.807
			c-1.156-1.076-2.354-2.095-3.54-3.167c-1.355-1.199-2.709-2.408-4.098-3.566c-1.209-1.017-2.444-1.99-3.673-2.969
			c-1.398-1.13-2.83-2.253-4.271-3.333c-1.261-0.95-2.537-1.869-3.823-2.788c-1.461-1.049-2.927-2.094-4.416-3.091
			c-1.303-0.879-2.631-1.736-3.955-2.578c-1.512-0.97-3.017-1.921-4.556-2.839c-1.346-0.808-2.708-1.604-4.073-2.377
			c-1.557-0.892-3.124-1.757-4.704-2.6c-1.396-0.698-2.791-1.457-4.188-2.156c-1.604-0.81-3.226-1.589-4.884-2.355
			c-1.399-0.665-2.818-1.311-4.258-1.94c-1.653-0.731-3.326-1.392-4.994-2.091c-1.436-0.586-2.866-1.164-4.32-1.717
			c-1.693-0.646-3.414-1.252-5.131-1.845c-1.452-0.51-2.906-1.019-4.378-1.495c-1.746-0.565-3.492-1.081-5.286-1.598
			c-1.453-0.426-2.913-0.857-4.383-1.246c-0.562-0.154-1.133-0.272-1.7-0.419c20.669,20.041,36.004,44.911,44.628,72.362
			C318.871,86.044,334.938,79.876,350.18,72.008z"/>
		<path fill="#FFFFFF" stroke="#FFFFFF" stroke-width="5.1532" stroke-miterlimit="10" d="M13.735,200.111h83.724
			c0.317-32.644,5.06-65.094,14.096-96.469c-18.428-4.913-36.216-11.98-52.991-21.059C31.021,115.733,15.255,157.066,13.735,200.111
			z"/>
		<path fill="#FFFFFF" stroke="#FFFFFF" stroke-width="5.1532" stroke-miterlimit="10" d="M202.106,325.755v-6.872
			c-1.973-1.656-2.295-4.833-0.965-6.986c-24.087,0.405-48.074,3.25-71.586,8.511c16.22,45.261,41.852,76.116,71.143,81.122
			c-1.526-2.327-1.058-5.948,1.409-7.479v-2.628c0-0.054-0.002-0.105-0.001-0.156c-2.714-4.768-2-12.195-1.94-17.002
			c0.02-1.525,0.813-2.85,1.941-3.781v-25.057c-2.253-5.432-2.512-11.462-1.242-17.367
			C201.072,327.092,201.518,326.33,202.106,325.755z"/>
		<path fill="#FFFFFF" stroke="#FFFFFF" stroke-width="5.1532" stroke-miterlimit="10" d="M167.75,260.422
			c-0.044-0.837-0.05-1.674-0.039-2.51c-0.091-0.821-0.167-1.648-0.211-2.49c-0.919-17.551,10.533-35.241,26.926-41.363h-83.003
			c0.353,31.487,4.978,62.787,13.748,93.035c24.163-5.506,48.817-8.548,73.588-9.097
			C181.841,293.338,168.745,279.396,167.75,260.422z"/>
		<path fill="#FFFFFF" stroke="#FFFFFF" stroke-width="5.1532" stroke-miterlimit="10" d="M167.444,62.75
			c0-1.73,0.123-3.435,0.337-5.114c-0.048-0.792-0.087-1.584-0.087-2.386c0-19.004,13.326-35.352,31-40.098
			c0.161-0.813,0.436-1.598,0.834-2.313c-28.803,5.616-53.969,36.266-69.973,80.924c21.875,4.896,44.163,7.698,66.558,8.389
			C179.612,96.646,167.444,80.91,167.444,62.75z"/>
		<path fill="#FFFFFF" stroke="#FFFFFF" stroke-width="5.1532" stroke-miterlimit="10" d="M167.25,162.922
			c-0.208-3.968,0.223-7.943,1.194-11.791c1.704-15.318,12.287-29.661,26.7-35.06c-23.553-0.755-46.986-3.761-69.973-8.997
			c-8.77,30.25-13.395,61.545-13.748,93.037h85.517C180.665,195.104,168.219,181.399,167.25,162.922z"/>
		<path fill="#FFFFFF" stroke="#FFFFFF" stroke-width="5.1532" stroke-miterlimit="10" d="M160.47,18.039
			c-0.567,0.146-1.134,0.266-1.698,0.412c-1.481,0.396-2.939,0.833-4.414,1.26c-1.751,0.51-3.491,1.025-5.25,1.583
			c-1.484,0.479-2.942,0.992-4.402,1.499c-1.707,0.602-3.42,1.202-5.111,1.841c-1.459,0.56-2.896,1.138-4.343,1.729
			c-1.66,0.698-3.324,1.396-4.964,2.091c-1.438,0.63-2.86,1.291-4.287,1.955c-1.612,0.758-3.218,1.532-4.81,2.335
			c-1.398,0.712-2.797,1.44-4.192,2.183c-1.563,0.836-3.116,1.695-4.656,2.573c-1.398,0.78-2.771,1.579-4.119,2.397
			c-1.518,0.913-3.018,1.856-4.512,2.788c-1.344,0.857-2.677,1.722-3.996,2.615c-1.474,0.99-2.924,2.022-4.371,3.054
			c-1.299,0.932-2.59,1.856-3.862,2.793c-1.43,1.073-2.793,2.188-4.233,3.302c-1.241,0.992-2.49,1.975-3.704,3
			c-1.398,1.15-2.724,2.341-4.073,3.533c-1.193,1.063-2.397,2.095-3.563,3.194c-1.326,1.236-2.618,2.52-3.915,3.793
			c-1.124,1.109-2.271,2.206-3.376,3.346c-0.2,0.211-0.395,0.443-0.606,0.657c15.229,7.857,31.271,14.023,47.846,18.389
			C124.481,62.927,139.811,38.068,160.47,18.039z"/>
		<path fill="#FFFFFF" stroke="#FFFFFF" stroke-width="5.1532" stroke-miterlimit="10" d="M71.968,346.146
			c1.299,1.273,2.592,2.564,3.924,3.811c1.159,1.072,2.352,2.09,3.542,3.164c1.353,1.203,2.708,2.406,4.099,3.563
			c1.206,1.012,2.437,1.989,3.673,2.971c1.396,1.131,2.792,2.254,4.272,3.342c1.258,0.939,2.536,1.852,3.814,2.791
			c1.459,1.044,2.933,2.091,4.42,3.095c1.306,0.878,2.631,1.736,3.958,2.578c1.511,0.97,3.019,1.921,4.556,2.838
			c1.347,0.81,2.707,1.604,4.071,2.384c1.56,0.892,3.126,1.756,4.704,2.594c1.395,0.699,2.794,1.461,4.192,2.156
			c1.605,0.812,3.225,1.59,4.886,2.36c1.396,0.656,2.814,1.304,4.254,1.937c1.652,0.73,3.32,1.394,4.992,2.092
			c1.439,0.584,2.871,1.164,4.324,1.715c1.694,0.65,3.413,1.256,5.131,1.85c1.453,0.508,2.905,1.018,4.378,1.49
			c1.748,0.564,3.492,1.084,5.286,1.598c1.452,0.426,2.911,0.858,4.378,1.25c0.565,0.154,1.139,0.272,1.705,0.418
			c-20.668-20.041-36.004-44.912-44.626-72.365c-16.575,4.367-32.619,10.533-47.845,18.396c0.204,0.208,0.397,0.435,0.602,0.647
			C69.702,343.943,70.831,345.041,71.968,346.146z"/>
		<path fill="#FFFFFF" stroke="#FFFFFF" stroke-width="5.1532" stroke-miterlimit="10" d="M58.563,331.584
			c16.774-9.076,34.562-16.143,52.991-21.059c-9.036-31.373-13.776-63.825-14.096-96.467H13.735
			C15.259,257.102,31.021,298.432,58.563,331.584z"/>
	</g>
	<path fill="#F9F9F9" stroke="#006A67" stroke-width="5" stroke-miterlimit="10" d="M209.088,66.523
		c19.316,0,34.973,15.658,34.973,34.972c0,19.313-15.656,34.971-34.973,34.971c-19.316,0-34.972-15.657-34.972-34.971
		C174.115,82.181,189.772,66.523,209.088,66.523z M323.468,161.748c-27.896,6.582-53.93,12.382-79.796,15.354
		c0.824,98.135,11.956,119.537,24.321,151.174c3.512,8.996-0.929,19.139-9.925,22.65c-8.998,3.516-19.135-0.932-22.65-9.926
		c-8.455-21.669-16.6-39.477-21.627-76.305h-9.411c-5.018,36.77-13.146,54.604-21.625,76.305
		c-3.51,8.991-13.649,13.441-22.646,9.926c-8.997-3.511-13.438-13.654-9.926-22.65c12.347-31.61,23.494-52.983,24.32-151.174
		c-25.865-2.969-51.9-8.771-79.795-15.354c-8.355-1.973-13.527-10.346-11.553-18.701c1.971-8.354,10.342-13.527,18.7-11.556
		c93.923,22.178,120.736,22.132,214.469,0c8.351-1.972,16.726,3.202,18.696,11.556C336.992,151.402,331.82,159.775,323.468,161.748z
		"/>
</g>
</svg>
