<?xml version="1.0" encoding="utf-8"?>
<!-- Generator: Adobe Illustrator 16.0.0, SVG Export Plug-In . SVG Version: 6.00 Build 0)  -->
<!DOCTYPE svg PUBLIC "-//W3C//DTD SVG 1.1//EN" "http://www.w3.org/Graphics/SVG/1.1/DTD/svg11.dtd">
<svg version="1.1" id="Calque_1" xmlns="http://www.w3.org/2000/svg" xmlns:xlink="http://www.w3.org/1999/xlink" x="0px" y="0px"
	 width="512px" height="512px" viewBox="0 0 512 512" enable-background="new 0 0 512 512" xml:space="preserve">
<path fill="#FFFFFF" d="M4.164,154.098c-13.77,67.527,7.07,134.895,55.828,181.609L59.996,512h210.008v-62.004h90.008v-68.789l30-30
	v-26.875l68.094-33.488l-68.148-100.547C387.106,69.707,275.973-21.254,153.203,4.336C79.176,19.766,19.281,79.953,4.164,154.098z
	 M159.324,33.707c105.762-22.043,200.688,57.48,200.688,161.277v4.605l53.914,79.547l-53.914,26.512v33.129l-30.004,30.004v51.215
	h-90.004V482H89.996V322.449L85,317.977c-44.285-39.637-63.516-98.66-51.441-157.891C46.317,97.516,96.86,46.727,159.324,33.707z"/>
<path fill="#FFFFFF" d="M100.582,301.461l35.156-20.301c4.547,3.145,9.305,5.906,14.262,8.281v40.551h90.004v-40.547
	c4.953-2.375,9.715-5.141,14.262-8.281l35.156,20.297l45-77.945l-34.813-20.102c0.266-2.898,0.398-5.699,0.398-8.43
	s-0.133-5.527-0.398-8.43l34.813-20.102l-45-77.945l-35.156,20.297c-4.547-3.141-9.309-5.906-14.262-8.277V59.977H150v40.547
	c-4.953,2.375-9.715,5.137-14.262,8.281l-35.156-20.301l-45,77.949l34.813,20.102c-0.266,2.902-0.398,5.699-0.398,8.43
	s0.133,5.527,0.398,8.43l-34.813,20.098L100.582,301.461z M119.996,194.984c0-8.719,1.965-15.867,3.332-24.059l-26.766-15.453
	l15-25.984l27.027,15.609c5.543-4.211,14.188-14.305,31.449-20.461l9.961-3.551V89.977h30.004v31.109l9.961,3.551
	c17.238,6.145,25.816,16.18,31.445,20.461l27.027-15.609l15.004,25.984l-26.766,15.453c1.363,8.164,3.328,15.332,3.328,24.059
	c0,8.715-1.961,15.863-3.328,24.059l26.766,15.453l-15.004,25.98l-27.027-15.605c-5.539,4.211-14.18,14.305-31.445,20.461
	l-9.961,3.551v31.105H180v-31.109l-9.961-3.551c-17.309-6.172-25.969-16.293-31.449-20.457l-27.027,15.605l-15-25.98l26.766-15.453
	C121.965,210.879,119.996,203.707,119.996,194.984z"/>
<path fill="#FFFFFF" d="M195,239.984c24.816,0,45.004-20.188,45.004-45c0-24.816-20.188-45.004-45.004-45.004
	c-24.813,0-45,20.188-45,45.004C150,219.797,170.188,239.984,195,239.984z M195,179.984c8.273,0,15.004,6.727,15.004,15
	c0,8.27-6.73,15-15.004,15c-8.27,0-15-6.73-15-15C180,186.711,186.731,179.984,195,179.984z"/>
</svg>
