<?xml version="1.0" encoding="utf-8"?>
<!-- Generator: Adobe Illustrator 16.0.0, SVG Export Plug-In . SVG Version: 6.00 Build 0)  -->
<!DOCTYPE svg PUBLIC "-//W3C//DTD SVG 1.1//EN" "http://www.w3.org/Graphics/SVG/1.1/DTD/svg11.dtd">
<svg version="1.1" id="Layer_1" xmlns="http://www.w3.org/2000/svg" xmlns:xlink="http://www.w3.org/1999/xlink" x="0px" y="0px"
	 width="512px" height="512px" viewBox="0 0 512 512" enable-background="new 0 0 512 512" xml:space="preserve">
<path fill="#FFFFFF" d="M507.743,486.59L354.302,333.148C498.199,232.107,438.62,2.666,257.951,0
	c-61.896,0-119.343,32.284-151.516,85.283L25.567,4.413L4.257,25.722l88.163,88.162C76.225,156.158,74.815,226.22,78.548,271.031
	c5.769,75.328,10.113,103.821,10.113,153.151c1.298,94.942,129.036,121.939,168.666,35.793
	c13.225-24.834,22.674-70.774,71.855-109.325l157.25,157.249L507.743,486.59z M257.956,30.136
	c81.131,0,147.135,66.004,147.135,147.135c0,91.632-71.993,133.675-72.468,134.199l-34.74-34.741
	c22.271-35.157,17.808-68.406,18.39-73.311c0-29.08-23.658-52.738-52.737-52.738h-7.534v30.136h7.534
	c12.462,0,22.602,10.139,22.602,22.602c-0.501,5.387,2.799,26.597-10.281,51.284l-94.028-94.029
	c8.833-31.79,38.017-55.197,72.582-55.197h15.068c41.542,0,75.34,33.798,75.34,75.34h30.137c0-58.16-47.317-105.476-105.477-105.476
	h-15.068c-42.621,0-79.417,25.413-96.037,61.88l-29.984-29.984C153.348,60.668,202.163,30.136,257.956,30.136L257.956,30.136z
	 M229.788,447.737c-9.298,20.921-30.101,34.44-52.996,34.44c-31.979,0-57.994-26.016-57.994-57.994
	c0-51.058-4.5-80.827-10.218-155.654c-4.523-54.273,1.206-107.539,7.639-130.845l33.187,33.188
	c-0.825,8.789-0.319,8.669-0.472,75.287c0,20.95,12.169,40.416,31.003,49.59c13.134,6.397,18.104,22.697,10.498,35.372
	l-22.696,37.827l25.842,15.506l22.696-37.83c16.636-27.727,5.919-63.813-23.142-77.97c-8.545-4.163-14.065-12.993-14.065-22.497
	v-45.623l128.666,128.666C253.869,372.93,242.861,423.237,229.788,447.737L229.788,447.737z"/>
</svg>
