<?xml version="1.0" encoding="utf-8"?>
<!-- Generator: Adobe Illustrator 16.0.0, SVG Export Plug-In . SVG Version: 6.00 Build 0)  -->
<!DOCTYPE svg PUBLIC "-//W3C//DTD SVG 1.1//EN" "http://www.w3.org/Graphics/SVG/1.1/DTD/svg11.dtd">
<svg version="1.1" id="Capa_1" xmlns="http://www.w3.org/2000/svg" xmlns:xlink="http://www.w3.org/1999/xlink" x="0px" y="0px"
	 width="595.279px" height="841.89px" viewBox="0 0 595.279 841.89" enable-background="new 0 0 595.279 841.89"
	 xml:space="preserve">
<g>
	<g>
		<path fill="#FFFFFF" d="M367.784,350.792c-4.837-4.836-12.699-4.836-17.536,0c-4.837,4.837-4.837,12.724,0,17.537
			c14.039,14.039,21.802,32.716,21.802,52.608c0,41.024-33.386,74.411-74.409,74.411c-19.892,0-38.569-7.74-52.608-21.803
			c-4.836-4.838-12.699-4.838-17.536,0c-4.836,4.813-4.836,12.699,0,17.535c18.701,18.752,43.629,29.07,70.145,29.07
			c54.715,0,99.213-44.496,99.213-99.212C396.854,394.421,386.535,369.494,367.784,350.792z"/>
	</g>
</g>
<g>
	<g>
		<path fill="#FFFFFF" d="M314.928,323.434c-5.631-0.992-11.385-1.711-17.287-1.711c-54.716,0-99.213,44.497-99.213,99.212
			c0,5.902,0.72,11.658,1.735,17.287c1.066,6.004,6.301,10.244,12.18,10.244c0.719,0,1.438-0.049,2.182-0.199
			c6.722-1.189,11.236-7.639,10.046-14.359c-0.769-4.217-1.34-8.508-1.34-12.973c0-41.024,33.386-74.41,74.41-74.41
			c4.464,0,8.756,0.571,12.972,1.315c6.598,1.339,13.17-3.324,14.36-10.045C326.164,331.074,321.651,324.625,314.928,323.434z"/>
	</g>
</g>
<g>
	<g>
		<path fill="#FFFFFF" d="M592.328,412.924c-2.804-3.324-69.896-81.627-162.438-129.572c-6.002-3.149-13.566-0.769-16.718,5.333
			c-3.149,6.077-0.769,13.567,5.333,16.718c71.285,36.907,128.233,94.5,147.704,115.534
			c-29.565,32.021-145.918,148.82-268.569,148.82c-41.62,0-83.563-10.045-124.711-29.889c-6.102-3-13.567-0.396-16.544,5.779
			c-3,6.152-0.396,13.568,5.78,16.545c44.521,21.504,90.11,32.367,135.476,32.367c152.813,0,288.983-158.84,294.713-165.611
			C596.272,424.333,596.247,417.563,592.328,412.924z"/>
	</g>
</g>
<g>
	<g>
		<path fill="#FFFFFF" d="M379.021,261.599c-28.226-9.5-55.608-14.287-81.38-14.287c-152.813,0-288.983,158.841-294.713,165.612
			c-3.622,4.266-3.92,10.468-0.694,15.104c1.711,2.457,42.711,60.67,113.772,107.871c2.108,1.414,4.465,2.084,6.846,2.084
			c3.994,0,7.938-1.936,10.318-5.582c3.795-5.68,2.232-13.393-3.473-17.164c-52.186-34.699-87.902-76.592-101.271-93.632
			c28.549-31.004,145.67-149.489,269.215-149.489c23.091,0,47.82,4.366,73.467,12.972c6.498,2.331,13.542-1.265,15.7-7.789
			C388.991,270.802,385.519,263.783,379.021,261.599z"/>
	</g>
</g>
<g>
	<g>
		<path fill="#FFFFFF" d="M517.224,201.352c-4.837-4.836-12.699-4.836-17.536,0L78.032,623.007c-4.836,4.838-4.836,12.701,0,17.537
			c2.432,2.406,5.605,3.621,8.78,3.621c3.176,0,6.35-1.215,8.756-3.621l421.655-421.657
			C522.061,214.051,522.061,206.188,517.224,201.352z"/>
	</g>
</g>
</svg>
