<?xml version="1.0" encoding="utf-8"?>
<!-- Generator: Adobe Illustrator 16.0.0, SVG Export Plug-In . SVG Version: 6.00 Build 0)  -->
<!DOCTYPE svg PUBLIC "-//W3C//DTD SVG 1.1//EN" "http://www.w3.org/Graphics/SVG/1.1/DTD/svg11.dtd">
<svg version="1.1" id="Calque_1" xmlns="http://www.w3.org/2000/svg" xmlns:xlink="http://www.w3.org/1999/xlink" x="0px" y="0px"
	 width="512px" height="512px" viewBox="0 0 512 512" enable-background="new 0 0 512 512" xml:space="preserve">
<title>025 - Wheelchair access</title>
<desc>Created with Sketch.</desc>
<g id="Page-1">
	<g id="_x30_25---Wheelchair-access">
		<path id="Shape" fill="#FFFFFF" d="M256,0C114.615,0,0,114.615,0,256s114.615,256,256,256s256-114.615,256-256
			C511.84,114.682,397.319,0.16,256,0z M256,494.934C124.04,494.934,17.067,387.959,17.067,256S124.04,17.066,256,17.066
			c131.959,0,238.933,106.975,238.933,238.934C494.782,387.896,387.897,494.783,256,494.934z"/>
		<path id="Shape_1_" fill="#FFFFFF" d="M256,34.133C133.466,34.133,34.133,133.466,34.133,256
			c0,122.533,99.333,221.866,221.867,221.866c122.533,0,221.866-99.333,221.866-221.866C477.726,133.525,378.475,34.274,256,34.133z
			 M256,460.8c-113.108,0-204.8-91.692-204.8-204.8c0-113.108,91.691-204.8,204.8-204.8c113.107,0,204.8,91.692,204.8,204.8
			C460.668,369.053,369.053,460.668,256,460.8z"/>
		<path id="Shape_2_" fill="#FFFFFF" d="M324.267,170.667c23.563,0,42.666-19.103,42.666-42.667s-19.103-42.667-42.666-42.667
			c-23.564,0-42.667,19.103-42.667,42.667C281.628,151.553,300.714,170.639,324.267,170.667z M324.267,102.4
			c14.138,0,25.6,11.461,25.6,25.6s-11.462,25.6-25.6,25.6c-14.139,0-25.601-11.461-25.601-25.6S310.128,102.4,324.267,102.4z"/>
		<path id="Shape_3_" fill="#FFFFFF" d="M196.267,266.939c-24.16,0-45.941,14.554-55.187,36.875
			c-9.246,22.32-4.135,48.013,12.948,65.097c17.084,17.083,42.776,22.194,65.097,12.948C241.447,372.613,256,350.833,256,326.673
			C255.962,293.699,229.24,266.978,196.267,266.939z M196.267,369.34c-23.564,0-42.667-19.103-42.667-42.667
			c0-23.563,19.103-42.667,42.667-42.667s42.666,19.104,42.666,42.667C238.906,350.226,219.82,369.312,196.267,369.34z"/>
		<path id="Shape_4_" fill="#FFFFFF" d="M349.866,258.406h-59.093l28.159-32.153c4.622-5.25,6.895-12.161,6.29-19.129
			c-0.604-6.968-4.033-13.385-9.49-17.76l-26.351-21l-40.209-34.39c-10.181-8.441-25.114-7.738-34.457,1.622l-45.03,45.022
			c-6.462,6.448-8.993,15.853-6.64,24.673c2.354,8.82,9.233,15.714,18.048,18.086c8.815,2.372,18.226-0.139,24.688-6.586
			l28.425-28.356l10.718,9.284l-36.079,36.079c-40.504-5.609-80.001,15.557-97.762,52.389s-9.729,80.916,19.882,109.117
			c29.609,28.201,74.032,34.076,109.956,14.543c35.923-19.533,55.14-60.014,47.565-100.197h24.789l-21.606,59.512
			c-2.345,6.335-2.056,13.345,0.803,19.465c4.347,9.423,13.952,15.289,24.319,14.854c10.368-0.436,19.447-7.088,22.989-16.842
			l34.133-93.867c2.881-7.848,1.741-16.609-3.053-23.459C366.068,262.461,358.227,258.389,349.866,258.406z M263.492,203.255
			c0.076-0.068,0.103-0.17,0.171-0.248c0.067-0.077,0.179-0.111,0.247-0.196c0.27-0.383,0.501-0.792,0.691-1.22
			c0.333-0.456,0.619-0.945,0.854-1.459c0.16-0.528,0.267-1.072,0.315-1.622c0.116-0.521,0.183-1.053,0.196-1.587
			c-0.055-0.543-0.16-1.081-0.315-1.604c-0.089-0.53-0.229-1.05-0.419-1.553c-0.268-0.505-0.585-0.983-0.947-1.425
			c-0.222-0.406-0.479-0.791-0.768-1.152c-0.068-0.077-0.171-0.094-0.247-0.171c-0.077-0.077-0.111-0.17-0.196-0.247l-23.638-20.48
			c-3.369-2.926-8.424-2.763-11.597,0.375l-34.048,33.971c-3.329,3.314-8.712,3.314-12.041,0c-1.614-1.568-2.524-3.723-2.524-5.973
			s0.91-4.405,2.524-5.973l45.099-45.099c3.061-3.082,7.957-3.347,11.333-0.615l40.533,34.731l0.375,0.281l25.924,20.693
			c1.836,1.469,2.984,3.63,3.175,5.974c0.205,2.313-0.555,4.607-2.1,6.34l-37.981,43.418h-6.136
			c-0.409,0.052-0.814,0.134-1.211,0.247c-9.358-8.869-20.438-15.721-32.555-20.13L263.492,203.255z M196.267,403.473
			c-42.416,0-76.8-34.385-76.8-76.8s34.384-76.8,76.8-76.8c42.415,0,76.8,34.385,76.8,76.8
			C273.02,369.068,238.662,403.426,196.267,403.473z M357.888,286.899l-34.134,93.866c-1.174,3.263-4.205,5.49-7.67,5.637
			c-3.464,0.146-6.672-1.818-8.116-4.971c-0.948-2.023-1.041-4.343-0.256-6.434l25.771-70.989c0.952-2.616,0.567-5.534-1.029-7.814
			c-1.598-2.28-4.208-3.638-6.992-3.638h-41.839c-2.332-5.975-5.271-11.693-8.772-17.066h75.017c2.753,0.01,5.338,1.327,6.963,3.55
			c1.592,2.299,1.988,5.22,1.067,7.859H357.888z"/>
	</g>
</g>
</svg>
